<svg width="101" height="90" viewBox="0 0 101 90" fill="none" xmlns="http://www.w3.org/2000/svg">
<path d="M87.3896 0H13.6105C6.09407 0 0.000534058 5.42966 0.000534058 12.1277V77.8719C0.000534058 84.5699 6.09382 89.9996 13.6105 89.9996H49.998L50.06 57.8386H40.6834C39.4648 57.8386 38.4758 56.9606 38.4711 55.8747L38.4261 45.5079C38.4214 44.4161 39.4134 43.5289 40.6387 43.5289H49.9983V33.5119C49.9983 21.8873 57.9656 15.5576 69.6029 15.5576H79.1522C80.374 15.5576 81.3648 16.4402 81.3648 17.5292V26.2705C81.3648 27.359 80.3747 28.2414 79.1535 28.2421L73.2932 28.2445C66.9644 28.2445 65.7389 30.9243 65.7389 34.8571V43.5291H79.6454C80.9704 43.5291 81.9985 44.5601 81.8424 45.7327L80.4634 56.0995C80.3315 57.0916 79.3874 57.839 78.2665 57.839H65.801L65.7389 90H87.3901C94.9065 90 101 84.5703 101 77.8725V12.1277C101 5.42966 94.9063 0 87.3896 0Z" fill="white"/>
</svg>
