<svg width="199" height="38" viewBox="0 0 199 38" fill="none" xmlns="http://www.w3.org/2000/svg">
<path d="M28.0938 19.1641V32.6875C27.5625 33.3281 26.7422 34.0234 25.6328 34.7734C24.5234 35.5078 23.0938 36.1406 21.3438 36.6719C19.5938 37.2031 17.4766 37.4688 14.9922 37.4688C12.7891 37.4688 10.7812 37.1094 8.96875 36.3906C7.15625 35.6562 5.59375 34.5859 4.28125 33.1797C2.98438 31.7734 1.98438 30.0547 1.28125 28.0234C0.578125 25.9766 0.226562 23.6406 0.226562 21.0156V18.8828C0.226562 16.2578 0.5625 13.9219 1.23438 11.875C1.92188 9.82812 2.89844 8.10156 4.16406 6.69531C5.42969 5.28906 6.9375 4.21875 8.6875 3.48438C10.4375 2.75 12.3828 2.38281 14.5234 2.38281C17.4922 2.38281 19.9297 2.86719 21.8359 3.83594C23.7422 4.78906 25.1953 6.11719 26.1953 7.82031C27.2109 9.50781 27.8359 11.4453 28.0703 13.6328H21.25C21.0781 12.4766 20.75 11.4688 20.2656 10.6094C19.7812 9.75 19.0859 9.07812 18.1797 8.59375C17.2891 8.10938 16.1328 7.86719 14.7109 7.86719C13.5391 7.86719 12.4922 8.10938 11.5703 8.59375C10.6641 9.0625 9.89844 9.75781 9.27344 10.6797C8.64844 11.6016 8.17188 12.7422 7.84375 14.1016C7.51562 15.4609 7.35156 17.0391 7.35156 18.8359V21.0156C7.35156 22.7969 7.52344 24.375 7.86719 25.75C8.21094 27.1094 8.71875 28.2578 9.39062 29.1953C10.0781 30.1172 10.9219 30.8125 11.9219 31.2812C12.9219 31.75 14.0859 31.9844 15.4141 31.9844C16.5234 31.9844 17.4453 31.8906 18.1797 31.7031C18.9297 31.5156 19.5312 31.2891 19.9844 31.0234C20.4531 30.7422 20.8125 30.4766 21.0625 30.2266V24.1797H14.6406V19.1641H28.0938Z" fill="black"/>
<path d="M40.4688 1V37H33.6953V1H40.4688Z" fill="black"/>
<path d="M61.0469 30.9297V11.6406H67.7969V37H61.4453L61.0469 30.9297ZM61.7969 25.7266L63.7891 25.6797C63.7891 27.3672 63.5938 28.9375 63.2031 30.3906C62.8125 31.8281 62.2266 33.0781 61.4453 34.1406C60.6641 35.1875 59.6797 36.0078 58.4922 36.6016C57.3047 37.1797 55.9062 37.4688 54.2969 37.4688C53.0625 37.4688 51.9219 37.2969 50.875 36.9531C49.8438 36.5938 48.9531 36.0391 48.2031 35.2891C47.4688 34.5234 46.8906 33.5469 46.4688 32.3594C46.0625 31.1562 45.8594 29.7109 45.8594 28.0234V11.6406H52.6094V28.0703C52.6094 28.8203 52.6953 29.4531 52.8672 29.9688C53.0547 30.4844 53.3125 30.9062 53.6406 31.2344C53.9688 31.5625 54.3516 31.7969 54.7891 31.9375C55.2422 32.0781 55.7422 32.1484 56.2891 32.1484C57.6797 32.1484 58.7734 31.8672 59.5703 31.3047C60.3828 30.7422 60.9531 29.9766 61.2812 29.0078C61.625 28.0234 61.7969 26.9297 61.7969 25.7266Z" fill="black"/>
<path d="M79.7031 17.1719V37H72.9531V11.6406H79.3047L79.7031 17.1719ZM87.3438 11.4766L87.2266 17.7344C86.8984 17.6875 86.5 17.6484 86.0312 17.6172C85.5781 17.5703 85.1641 17.5469 84.7891 17.5469C83.8359 17.5469 83.0078 17.6719 82.3047 17.9219C81.6172 18.1562 81.0391 18.5078 80.5703 18.9766C80.1172 19.4453 79.7734 20.0156 79.5391 20.6875C79.3203 21.3594 79.1953 22.125 79.1641 22.9844L77.8047 22.5625C77.8047 20.9219 77.9688 19.4141 78.2969 18.0391C78.625 16.6484 79.1016 15.4375 79.7266 14.4062C80.3672 13.375 81.1484 12.5781 82.0703 12.0156C82.9922 11.4531 84.0469 11.1719 85.2344 11.1719C85.6094 11.1719 85.9922 11.2031 86.3828 11.2656C86.7734 11.3125 87.0938 11.3828 87.3438 11.4766Z" fill="black"/>
<path d="M118 19.1641V32.6875C117.469 33.3281 116.648 34.0234 115.539 34.7734C114.43 35.5078 113 36.1406 111.25 36.6719C109.5 37.2031 107.383 37.4688 104.898 37.4688C102.695 37.4688 100.688 37.1094 98.875 36.3906C97.0625 35.6562 95.5 34.5859 94.1875 33.1797C92.8906 31.7734 91.8906 30.0547 91.1875 28.0234C90.4844 25.9766 90.1328 23.6406 90.1328 21.0156V18.8828C90.1328 16.2578 90.4688 13.9219 91.1406 11.875C91.8281 9.82812 92.8047 8.10156 94.0703 6.69531C95.3359 5.28906 96.8438 4.21875 98.5938 3.48438C100.344 2.75 102.289 2.38281 104.43 2.38281C107.398 2.38281 109.836 2.86719 111.742 3.83594C113.648 4.78906 115.102 6.11719 116.102 7.82031C117.117 9.50781 117.742 11.4453 117.977 13.6328H111.156C110.984 12.4766 110.656 11.4688 110.172 10.6094C109.688 9.75 108.992 9.07812 108.086 8.59375C107.195 8.10938 106.039 7.86719 104.617 7.86719C103.445 7.86719 102.398 8.10938 101.477 8.59375C100.57 9.0625 99.8047 9.75781 99.1797 10.6797C98.5547 11.6016 98.0781 12.7422 97.75 14.1016C97.4219 15.4609 97.2578 17.0391 97.2578 18.8359V21.0156C97.2578 22.7969 97.4297 24.375 97.7734 25.75C98.1172 27.1094 98.625 28.2578 99.2969 29.1953C99.9844 30.1172 100.828 30.8125 101.828 31.2812C102.828 31.75 103.992 31.9844 105.32 31.9844C106.43 31.9844 107.352 31.8906 108.086 31.7031C108.836 31.5156 109.438 31.2891 109.891 31.0234C110.359 30.7422 110.719 30.4766 110.969 30.2266V24.1797H104.547V19.1641H118Z" fill="black"/>
<path d="M134.922 37.4688C132.953 37.4688 131.188 37.1562 129.625 36.5312C128.062 35.8906 126.734 35.0078 125.641 33.8828C124.562 32.7578 123.734 31.4531 123.156 29.9688C122.578 28.4688 122.289 26.875 122.289 25.1875V24.25C122.289 22.3281 122.562 20.5703 123.109 18.9766C123.656 17.3828 124.438 16 125.453 14.8281C126.484 13.6562 127.734 12.7578 129.203 12.1328C130.672 11.4922 132.328 11.1719 134.172 11.1719C135.969 11.1719 137.562 11.4688 138.953 12.0625C140.344 12.6562 141.508 13.5 142.445 14.5938C143.398 15.6875 144.117 17 144.602 18.5312C145.086 20.0469 145.328 21.7344 145.328 23.5938V26.4062H125.172V21.9062H138.695V21.3906C138.695 20.4531 138.523 19.6172 138.18 18.8828C137.852 18.1328 137.352 17.5391 136.68 17.1016C136.008 16.6641 135.148 16.4453 134.102 16.4453C133.211 16.4453 132.445 16.6406 131.805 17.0312C131.164 17.4219 130.641 17.9688 130.234 18.6719C129.844 19.375 129.547 20.2031 129.344 21.1562C129.156 22.0938 129.062 23.125 129.062 24.25V25.1875C129.062 26.2031 129.203 27.1406 129.484 28C129.781 28.8594 130.195 29.6016 130.727 30.2266C131.273 30.8516 131.93 31.3359 132.695 31.6797C133.477 32.0234 134.359 32.1953 135.344 32.1953C136.562 32.1953 137.695 31.9609 138.742 31.4922C139.805 31.0078 140.719 30.2812 141.484 29.3125L144.766 32.875C144.234 33.6406 143.508 34.375 142.586 35.0781C141.68 35.7812 140.586 36.3594 139.305 36.8125C138.023 37.25 136.562 37.4688 134.922 37.4688Z" fill="black"/>
<path d="M160.844 37.4688C158.875 37.4688 157.109 37.1562 155.547 36.5312C153.984 35.8906 152.656 35.0078 151.562 33.8828C150.484 32.7578 149.656 31.4531 149.078 29.9688C148.5 28.4688 148.211 26.875 148.211 25.1875V24.25C148.211 22.3281 148.484 20.5703 149.031 18.9766C149.578 17.3828 150.359 16 151.375 14.8281C152.406 13.6562 153.656 12.7578 155.125 12.1328C156.594 11.4922 158.25 11.1719 160.094 11.1719C161.891 11.1719 163.484 11.4688 164.875 12.0625C166.266 12.6562 167.43 13.5 168.367 14.5938C169.32 15.6875 170.039 17 170.523 18.5312C171.008 20.0469 171.25 21.7344 171.25 23.5938V26.4062H151.094V21.9062H164.617V21.3906C164.617 20.4531 164.445 19.6172 164.102 18.8828C163.773 18.1328 163.273 17.5391 162.602 17.1016C161.93 16.6641 161.07 16.4453 160.023 16.4453C159.133 16.4453 158.367 16.6406 157.727 17.0312C157.086 17.4219 156.562 17.9688 156.156 18.6719C155.766 19.375 155.469 20.2031 155.266 21.1562C155.078 22.0938 154.984 23.125 154.984 24.25V25.1875C154.984 26.2031 155.125 27.1406 155.406 28C155.703 28.8594 156.117 29.6016 156.648 30.2266C157.195 30.8516 157.852 31.3359 158.617 31.6797C159.398 32.0234 160.281 32.1953 161.266 32.1953C162.484 32.1953 163.617 31.9609 164.664 31.4922C165.727 31.0078 166.641 30.2812 167.406 29.3125L170.688 32.875C170.156 33.6406 169.43 34.375 168.508 35.0781C167.602 35.7812 166.508 36.3594 165.227 36.8125C163.945 37.25 162.484 37.4688 160.844 37.4688Z" fill="black"/>
<path d="M181.844 0.976562V37H175.094V0.976562H181.844ZM197.828 11.6406L186.812 24.2031L180.906 30.1797L178.445 25.3047L183.133 19.3516L189.719 11.6406H197.828ZM190.82 37L183.32 25.2812L187.984 21.2031L198.602 37H190.82Z" fill="black"/>
</svg>
