<svg width="104" height="90" viewBox="0 0 104 90" fill="none" xmlns="http://www.w3.org/2000/svg">
<g clip-path="url(#clip0_1_77)">
<path d="M100.934 17.6623C100.421 17.7919 99.9088 17.9126 99.3961 18.025C96.2621 18.7099 95.974 17.8062 98.243 15.8125C99.2592 14.9191 100.157 13.9473 100.937 12.8978C102.685 10.5444 101.169 9.51806 98.195 10.6174C97.1343 11.0096 96.0561 11.3651 94.9628 11.6821C91.899 12.5726 87.5512 11.2294 84.8212 9.73095C81.3745 7.83952 77.4575 6.8943 73.0688 6.8943C66.9214 6.8943 61.6817 8.7705 57.3465 12.5199C53.0127 16.2713 50.8447 20.807 50.8447 26.1256C50.8447 26.853 50.8927 27.5914 50.9875 28.3402C51.1433 29.5588 48.7715 30.4423 45.5708 30.0511C38.6474 29.2053 32.0694 27.3898 25.8355 24.6068C19.6531 21.8471 14.1966 18.3743 9.46703 14.1882C7.2062 12.1875 4.14847 12.3598 3.30432 15.0606C2.79855 16.6795 2.54701 18.3632 2.54701 20.112C2.54701 23.4075 3.44128 26.464 5.2302 29.2814C6.11988 30.6835 7.16183 31.9528 8.35833 33.0886C10.3709 35.0004 10.0629 36.1096 7.26149 35.4299C4.46123 34.7503 2.40909 33.7411 2.40909 33.807C2.40909 33.8729 2.40909 33.9265 2.40909 33.9265C2.40909 38.5695 4.09376 42.6492 7.46521 46.1616C9.54202 48.3255 11.9547 49.9971 14.7024 51.1744C17.5998 52.4164 18.9495 53.1092 17.3293 53.2906C16.3519 53.4 15.3684 53.4546 14.3793 53.4546C13.7098 53.4546 13.0074 53.4283 12.2746 53.3747C11.1155 53.2896 10.9072 55.3795 12.6644 57.728C14.061 59.5941 15.8486 61.2362 18.0262 62.6547C20.2411 64.0984 22.6282 65.1346 25.1836 65.7658C28.293 66.5327 28.917 67.9299 26.1446 69.3684C19.2845 72.9306 11.6927 74.7115 3.37031 74.7115C2.43262 74.7115 1.53816 74.6932 0.683679 74.6578C-0.799565 74.5961 0.195513 75.7265 3.0589 77.0243C12.0064 81.0798 21.696 83.1058 32.1293 83.1058C40.0174 83.1058 47.4254 82.0251 54.3523 79.862C61.2767 77.6991 67.1946 74.8005 72.1021 71.1686C77.0095 67.5367 81.2416 63.3597 84.7969 58.6356C88.3512 53.9117 90.9992 48.9798 92.7435 43.8406C94.4854 38.7001 95.3577 33.5496 95.3577 28.389C95.3577 27.924 95.3531 27.5065 95.3449 27.1388C95.3284 26.4479 97.4404 24.5777 99.798 22.664C100.862 21.7999 101.877 20.8931 102.847 19.9419C104.985 17.8416 104.038 16.8792 100.934 17.6623Z" fill="white"/>
</g>
<defs>
<clipPath id="clip0_1_77">
<rect width="104" height="90" fill="white"/>
</clipPath>
</defs>
</svg>
