<svg width="107" height="110" viewBox="0 0 107 110" fill="none" xmlns="http://www.w3.org/2000/svg">
<path d="M102.829 22.9385C98.9671 18.2185 91.836 16.2931 78.2173 16.2931H28.7816C14.8513 16.2931 7.59942 18.3427 3.75156 23.3679C0 28.2675 0 35.4867 0 45.4783V64.5221C0 83.8789 4.4512 93.7069 28.7816 93.7069H78.2177C90.0277 93.7069 96.572 92.0079 100.806 87.8425C105.148 83.5709 107 76.5966 107 64.5221V45.4783C107 34.9413 106.71 27.6795 102.829 22.9385ZM68.6943 57.6294L46.2457 69.6907C45.7439 69.9604 45.1951 70.0941 44.647 70.0941C44.0264 70.0941 43.4071 69.9224 42.8587 69.581C41.826 68.9377 41.1953 67.787 41.1953 66.5457V42.5005C41.1953 41.2614 41.8242 40.1117 42.8549 39.468C43.8859 38.8243 45.1682 38.7803 46.2378 39.3516L68.6864 51.3352C69.8285 51.9448 70.5458 53.157 70.5475 54.4795C70.5489 55.803 69.8348 57.0169 68.6943 57.6294Z" fill="white"/>
</svg>
